%TF.GenerationSoftware,KiCad,Pcbnew,7.0.2-6a45011f42~172~ubuntu22.04.1*%
%TF.CreationDate,2023-05-18T11:35:50+02:00*%
%TF.ProjectId,midi_relais,6d696469-5f72-4656-9c61-69732e6b6963,rev?*%
%TF.SameCoordinates,Original*%
%TF.FileFunction,Copper,L1,Top*%
%TF.FilePolarity,Positive*%
%FSLAX46Y46*%
G04 Gerber Fmt 4.6, Leading zero omitted, Abs format (unit mm)*
G04 Created by KiCad (PCBNEW 7.0.2-6a45011f42~172~ubuntu22.04.1) date 2023-05-18 11:35:50*
%MOMM*%
%LPD*%
G01*
G04 APERTURE LIST*
G04 Aperture macros list*
%AMRoundRect*
0 Rectangle with rounded corners*
0 $1 Rounding radius*
0 $2 $3 $4 $5 $6 $7 $8 $9 X,Y pos of 4 corners*
0 Add a 4 corners polygon primitive as box body*
4,1,4,$2,$3,$4,$5,$6,$7,$8,$9,$2,$3,0*
0 Add four circle primitives for the rounded corners*
1,1,$1+$1,$2,$3*
1,1,$1+$1,$4,$5*
1,1,$1+$1,$6,$7*
1,1,$1+$1,$8,$9*
0 Add four rect primitives between the rounded corners*
20,1,$1+$1,$2,$3,$4,$5,0*
20,1,$1+$1,$4,$5,$6,$7,0*
20,1,$1+$1,$6,$7,$8,$9,0*
20,1,$1+$1,$8,$9,$2,$3,0*%
G04 Aperture macros list end*
%TA.AperFunction,ComponentPad*%
%ADD10RoundRect,0.500000X-0.500000X-1.000000X0.500000X-1.000000X0.500000X1.000000X-0.500000X1.000000X0*%
%TD*%
%TA.AperFunction,ComponentPad*%
%ADD11RoundRect,0.500000X-1.000000X-0.500000X1.000000X-0.500000X1.000000X0.500000X-1.000000X0.500000X0*%
%TD*%
%TA.AperFunction,CastellatedPad*%
%ADD12RoundRect,0.500000X-1.000000X-0.500000X1.000000X-0.500000X1.000000X0.500000X-1.000000X0.500000X0*%
%TD*%
%TA.AperFunction,ComponentPad*%
%ADD13C,2.000000*%
%TD*%
%TA.AperFunction,ComponentPad*%
%ADD14RoundRect,1.250000X-1.250000X2.750000X-1.250000X-2.750000X1.250000X-2.750000X1.250000X2.750000X0*%
%TD*%
%TA.AperFunction,ComponentPad*%
%ADD15C,3.000000*%
%TD*%
%TA.AperFunction,ComponentPad*%
%ADD16RoundRect,1.250000X2.750000X1.250000X-2.750000X1.250000X-2.750000X-1.250000X2.750000X-1.250000X0*%
%TD*%
%TA.AperFunction,ComponentPad*%
%ADD17R,3.000000X3.000000*%
%TD*%
%TA.AperFunction,ComponentPad*%
%ADD18RoundRect,1.250000X1.250000X-2.750000X1.250000X2.750000X-1.250000X2.750000X-1.250000X-2.750000X0*%
%TD*%
%TA.AperFunction,Conductor*%
%ADD19C,0.250000*%
%TD*%
%TA.AperFunction,Conductor*%
%ADD20C,0.762000*%
%TD*%
%TA.AperFunction,Conductor*%
%ADD21C,0.760000*%
%TD*%
G04 APERTURE END LIST*
D10*
%TO.P,J13,G*%
%TO.N,unconnected-(J13-PadG)*%
X26550000Y-111300000D03*
D11*
%TO.P,J13,S*%
%TO.N,Net-(Q7-B)*%
X30450000Y-115900000D03*
D10*
X37750000Y-115400000D03*
D12*
%TO.P,J13,T*%
%TO.N,unconnected-(J13-PadT)*%
X33350000Y-108800000D03*
D11*
X34550000Y-106100000D03*
%TD*%
D13*
%TO.P,D3,1,K*%
%TO.N,Net-(D3-K)*%
X60126623Y-65906188D03*
%TO.P,D3,2,A*%
%TO.N,Net-(D3-A)*%
X55046623Y-65906188D03*
%TD*%
%TO.P,Q6,1,E*%
%TO.N,Net-(D6-A)*%
X49050000Y-95130000D03*
%TO.P,Q6,2,B*%
%TO.N,Net-(Q6-B)*%
X42850000Y-91260000D03*
%TO.P,Q6,3,C*%
%TO.N,+3.3V*%
X49000000Y-87000000D03*
%TD*%
D10*
%TO.P,J10,G*%
%TO.N,GND*%
X26550000Y-99300000D03*
D11*
%TO.P,J10,S*%
%TO.N,Net-(Q6-B)*%
X30450000Y-103900000D03*
D10*
X37750000Y-103400000D03*
D12*
%TO.P,J10,T*%
%TO.N,unconnected-(J10-PadT)*%
X33350000Y-96800000D03*
D11*
X34550000Y-94100000D03*
%TD*%
D10*
%TO.P,J9,G*%
%TO.N,GND*%
X26550000Y-87300000D03*
D11*
%TO.P,J9,S*%
%TO.N,Net-(Q5-B)*%
X30450000Y-91900000D03*
D10*
X37750000Y-91400000D03*
D12*
%TO.P,J9,T*%
%TO.N,unconnected-(J9-PadT)*%
X33350000Y-84800000D03*
D11*
X34550000Y-82100000D03*
%TD*%
D14*
%TO.P,J3,1,Pin_1*%
%TO.N,Net-(J3-Pin_1)*%
X112510000Y-37400000D03*
%TO.P,J3,2,Pin_2*%
%TO.N,VAC*%
X119020000Y-37400000D03*
%TD*%
D13*
%TO.P,Q2,1,E*%
%TO.N,Net-(D2-A)*%
X47670000Y-54670000D03*
%TO.P,Q2,2,B*%
%TO.N,Net-(Q2-B)*%
X41470000Y-50800000D03*
%TO.P,Q2,3,C*%
%TO.N,+3.3V*%
X47620000Y-46540000D03*
%TD*%
D10*
%TO.P,J2,G*%
%TO.N,unconnected-(J2-PadG)*%
X26550000Y-51300000D03*
D11*
%TO.P,J2,S*%
%TO.N,Net-(Q2-B)*%
X30450000Y-55900000D03*
D10*
X37750000Y-55400000D03*
D12*
%TO.P,J2,T*%
%TO.N,unconnected-(J2-PadT)*%
X33350000Y-48800000D03*
D11*
X34550000Y-46100000D03*
%TD*%
D13*
%TO.P,D2,1,K*%
%TO.N,Net-(D2-K)*%
X60540000Y-60000000D03*
%TO.P,D2,2,A*%
%TO.N,Net-(D2-A)*%
X55460000Y-60000000D03*
%TD*%
D15*
%TO.P,K6,11*%
%TO.N,GND2*%
X89800000Y-83000000D03*
%TO.P,K6,12*%
%TO.N,unconnected-(K6-Pad12)*%
X104000000Y-77000000D03*
%TO.P,K6,14*%
%TO.N,Net-(J12-Pin_1)*%
X104000000Y-89000000D03*
%TO.P,K6,A1*%
%TO.N,Net-(D6-K)*%
X91800000Y-89000000D03*
%TO.P,K6,A2*%
%TO.N,GND*%
X91800000Y-77000000D03*
%TD*%
D13*
%TO.P,D1,1,K*%
%TO.N,Net-(D1-K)*%
X60540000Y-55000000D03*
%TO.P,D1,2,A*%
%TO.N,Net-(D1-A)*%
X55460000Y-55000000D03*
%TD*%
D15*
%TO.P,K8,11*%
%TO.N,GND2*%
X66800000Y-103000000D03*
%TO.P,K8,12*%
%TO.N,unconnected-(K8-Pad12)*%
X81000000Y-97000000D03*
%TO.P,K8,14*%
%TO.N,Net-(J16-Pin_1)*%
X81000000Y-109000000D03*
%TO.P,K8,A1*%
%TO.N,Net-(D8-K)*%
X68800000Y-109000000D03*
%TO.P,K8,A2*%
%TO.N,GND*%
X68800000Y-97000000D03*
%TD*%
%TO.P,K7,11*%
%TO.N,GND2*%
X89800000Y-103000000D03*
%TO.P,K7,12*%
%TO.N,unconnected-(K7-Pad12)*%
X104000000Y-97000000D03*
%TO.P,K7,14*%
%TO.N,Net-(J15-Pin_1)*%
X104000000Y-109000000D03*
%TO.P,K7,A1*%
%TO.N,Net-(D7-K)*%
X91800000Y-109000000D03*
%TO.P,K7,A2*%
%TO.N,GND*%
X91800000Y-97000000D03*
%TD*%
D13*
%TO.P,D8,1,K*%
%TO.N,Net-(D8-K)*%
X60540000Y-110000000D03*
%TO.P,D8,2,A*%
%TO.N,Net-(D8-A)*%
X55460000Y-110000000D03*
%TD*%
%TO.P,Q7,1,E*%
%TO.N,Net-(D7-A)*%
X48670000Y-107670000D03*
%TO.P,Q7,2,B*%
%TO.N,Net-(Q7-B)*%
X42470000Y-103800000D03*
%TO.P,Q7,3,C*%
%TO.N,+3.3V*%
X48620000Y-99540000D03*
%TD*%
D15*
%TO.P,K1,11*%
%TO.N,GND2*%
X60800000Y-41000000D03*
%TO.P,K1,12*%
%TO.N,unconnected-(K1-Pad12)*%
X75000000Y-35000000D03*
%TO.P,K1,14*%
%TO.N,Net-(J3-Pin_1)*%
X75000000Y-47000000D03*
%TO.P,K1,A1*%
%TO.N,Net-(D1-K)*%
X62800000Y-47000000D03*
%TO.P,K1,A2*%
%TO.N,GND*%
X62800000Y-35000000D03*
%TD*%
D13*
%TO.P,Q3,1,E*%
%TO.N,Net-(D3-A)*%
X47580000Y-66330000D03*
%TO.P,Q3,2,B*%
%TO.N,Net-(Q3-B)*%
X41380000Y-62460000D03*
%TO.P,Q3,3,C*%
%TO.N,+3.3V*%
X47530000Y-58200000D03*
%TD*%
D15*
%TO.P,K5,11*%
%TO.N,GND2*%
X64950000Y-83000000D03*
%TO.P,K5,12*%
%TO.N,unconnected-(K5-Pad12)*%
X79150000Y-77000000D03*
%TO.P,K5,14*%
%TO.N,Net-(J11-Pin_1)*%
X79150000Y-89000000D03*
%TO.P,K5,A1*%
%TO.N,Net-(D5-K)*%
X66950000Y-89000000D03*
%TO.P,K5,A2*%
%TO.N,GND*%
X66950000Y-77000000D03*
%TD*%
%TO.P,K3,11*%
%TO.N,GND2*%
X66950000Y-62000000D03*
%TO.P,K3,12*%
%TO.N,unconnected-(K3-Pad12)*%
X81150000Y-56000000D03*
%TO.P,K3,14*%
%TO.N,Net-(J7-Pin_1)*%
X81150000Y-68000000D03*
%TO.P,K3,A1*%
%TO.N,Net-(D3-K)*%
X68950000Y-68000000D03*
%TO.P,K3,A2*%
%TO.N,GND*%
X68950000Y-56000000D03*
%TD*%
D10*
%TO.P,J5,G*%
%TO.N,unconnected-(J5-PadG)*%
X26550000Y-63300000D03*
D11*
%TO.P,J5,S*%
%TO.N,Net-(Q3-B)*%
X30450000Y-67900000D03*
D10*
X37750000Y-67400000D03*
D12*
%TO.P,J5,T*%
%TO.N,unconnected-(J5-PadT)*%
X33350000Y-60800000D03*
D11*
X34550000Y-58100000D03*
%TD*%
D10*
%TO.P,J6,G*%
%TO.N,GND*%
X26550000Y-75300000D03*
D11*
%TO.P,J6,S*%
%TO.N,Net-(Q4-B)*%
X30450000Y-79900000D03*
D10*
X37750000Y-79400000D03*
D12*
%TO.P,J6,T*%
%TO.N,unconnected-(J6-PadT)*%
X33350000Y-72800000D03*
D11*
X34550000Y-70100000D03*
%TD*%
D13*
%TO.P,D7,1,K*%
%TO.N,Net-(D7-K)*%
X59540000Y-104000000D03*
%TO.P,D7,2,A*%
%TO.N,Net-(D7-A)*%
X54460000Y-104000000D03*
%TD*%
%TO.P,D5,1,K*%
%TO.N,Net-(D5-K)*%
X59540000Y-92000000D03*
%TO.P,D5,2,A*%
%TO.N,Net-(D5-A)*%
X54460000Y-92000000D03*
%TD*%
D15*
%TO.P,K2,11*%
%TO.N,GND2*%
X81950000Y-41000000D03*
%TO.P,K2,12*%
%TO.N,unconnected-(K2-Pad12)*%
X96150000Y-35000000D03*
%TO.P,K2,14*%
%TO.N,Net-(J4-Pin_1)*%
X96150000Y-47000000D03*
%TO.P,K2,A1*%
%TO.N,Net-(D2-K)*%
X83950000Y-47000000D03*
%TO.P,K2,A2*%
%TO.N,GND*%
X83950000Y-35000000D03*
%TD*%
D10*
%TO.P,J1,G*%
%TO.N,unconnected-(J1-PadG)*%
X26550000Y-39300000D03*
D11*
%TO.P,J1,S*%
%TO.N,Net-(Q1-B)*%
X30450000Y-43900000D03*
D10*
X37750000Y-43400000D03*
D12*
%TO.P,J1,T*%
%TO.N,unconnected-(J1-PadT)*%
X33350000Y-36800000D03*
D11*
X34550000Y-34100000D03*
%TD*%
D13*
%TO.P,D4,1,K*%
%TO.N,Net-(D4-K)*%
X60155502Y-70848713D03*
%TO.P,D4,2,A*%
%TO.N,Net-(D4-A)*%
X55075502Y-70848713D03*
%TD*%
%TO.P,Q1,1,E*%
%TO.N,Net-(D1-A)*%
X54670000Y-45670000D03*
%TO.P,Q1,2,B*%
%TO.N,Net-(Q1-B)*%
X48470000Y-41800000D03*
%TO.P,Q1,3,C*%
%TO.N,+3.3V*%
X54620000Y-37540000D03*
%TD*%
D16*
%TO.P,J17,1,Pin_1*%
%TO.N,VAC*%
X105000000Y-114745000D03*
%TO.P,J17,2,Pin_2*%
%TO.N,GND2*%
X105000000Y-121255000D03*
%TD*%
D13*
%TO.P,Q5,1,E*%
%TO.N,Net-(D5-A)*%
X57050000Y-85130000D03*
%TO.P,Q5,2,B*%
%TO.N,Net-(Q5-B)*%
X50850000Y-81260000D03*
%TO.P,Q5,3,C*%
%TO.N,+3.3V*%
X57000000Y-77000000D03*
%TD*%
%TO.P,D6,1,K*%
%TO.N,Net-(D6-K)*%
X59540000Y-98000000D03*
%TO.P,D6,2,A*%
%TO.N,Net-(D6-A)*%
X54460000Y-98000000D03*
%TD*%
D10*
%TO.P,J14,G*%
%TO.N,unconnected-(J14-PadG)*%
X26550000Y-123300000D03*
D11*
%TO.P,J14,S*%
%TO.N,Net-(Q8-B)*%
X30450000Y-127900000D03*
D10*
X37750000Y-127400000D03*
D12*
%TO.P,J14,T*%
%TO.N,unconnected-(J14-PadT)*%
X33350000Y-120800000D03*
D11*
X34550000Y-118100000D03*
%TD*%
D15*
%TO.P,K4,11*%
%TO.N,GND2*%
X89800000Y-62000000D03*
%TO.P,K4,12*%
%TO.N,unconnected-(K4-Pad12)*%
X104000000Y-56000000D03*
%TO.P,K4,14*%
%TO.N,Net-(J8-Pin_1)*%
X104000000Y-68000000D03*
%TO.P,K4,A1*%
%TO.N,Net-(D4-K)*%
X91800000Y-68000000D03*
%TO.P,K4,A2*%
%TO.N,GND*%
X91800000Y-56000000D03*
%TD*%
D13*
%TO.P,Q8,1,E*%
%TO.N,Net-(D8-A)*%
X48670000Y-120670000D03*
%TO.P,Q8,2,B*%
%TO.N,Net-(Q8-B)*%
X42470000Y-116800000D03*
%TO.P,Q8,3,C*%
%TO.N,+3.3V*%
X48620000Y-112540000D03*
%TD*%
%TO.P,Q4,1,E*%
%TO.N,Net-(D4-A)*%
X47580000Y-78130000D03*
%TO.P,Q4,2,B*%
%TO.N,Net-(Q4-B)*%
X41380000Y-74260000D03*
%TO.P,Q4,3,C*%
%TO.N,+3.3V*%
X47530000Y-70000000D03*
%TD*%
D17*
%TO.P,PS1,1,AC/N*%
%TO.N,GND2*%
X93157500Y-129500000D03*
D15*
%TO.P,PS1,2,AC/L*%
%TO.N,VAC*%
X93157500Y-118750000D03*
%TO.P,PS1,3,-Vo*%
%TO.N,GND*%
X54657500Y-118750000D03*
%TO.P,PS1,4,+Vo*%
%TO.N,+3.3V*%
X54657500Y-126750000D03*
%TD*%
D16*
%TO.P,J15,1,Pin_1*%
%TO.N,Net-(J15-Pin_1)*%
X116600000Y-117255000D03*
%TO.P,J15,2,Pin_2*%
%TO.N,VAC*%
X116600000Y-110745000D03*
%TD*%
%TO.P,J4,1,Pin_1*%
%TO.N,Net-(J4-Pin_1)*%
X116584077Y-52487134D03*
%TO.P,J4,2,Pin_2*%
%TO.N,VAC*%
X116584077Y-45977134D03*
%TD*%
%TO.P,J8,1,Pin_1*%
%TO.N,Net-(J8-Pin_1)*%
X116582725Y-78396910D03*
%TO.P,J8,2,Pin_2*%
%TO.N,VAC*%
X116582725Y-71886910D03*
%TD*%
%TO.P,J12,1,Pin_1*%
%TO.N,Net-(J12-Pin_1)*%
X116600000Y-104490000D03*
%TO.P,J12,2,Pin_2*%
%TO.N,VAC*%
X116600000Y-97980000D03*
%TD*%
%TO.P,J11,1,Pin_1*%
%TO.N,Net-(J11-Pin_1)*%
X116600000Y-91490000D03*
%TO.P,J11,2,Pin_2*%
%TO.N,VAC*%
X116600000Y-84980000D03*
%TD*%
%TO.P,J7,1,Pin_1*%
%TO.N,Net-(J7-Pin_1)*%
X116600000Y-65490000D03*
%TO.P,J7,2,Pin_2*%
%TO.N,VAC*%
X116600000Y-58980000D03*
%TD*%
D18*
%TO.P,J16,1,Pin_1*%
%TO.N,Net-(J16-Pin_1)*%
X112745000Y-126000000D03*
%TO.P,J16,2,Pin_2*%
%TO.N,VAC*%
X119255000Y-126000000D03*
%TD*%
D19*
%TO.N,Net-(D1-K)*%
X60540000Y-55000000D02*
X60540000Y-49260000D01*
X60540000Y-49260000D02*
X62800000Y-47000000D01*
%TO.N,Net-(D1-A)*%
X54670000Y-54210000D02*
X55460000Y-55000000D01*
X54670000Y-45670000D02*
X54670000Y-54210000D01*
%TO.N,Net-(D2-K)*%
X69540000Y-51000000D02*
X60540000Y-60000000D01*
X80000000Y-51000000D02*
X69540000Y-51000000D01*
X83950000Y-47000000D02*
X80000000Y-50950000D01*
X80000000Y-50950000D02*
X80000000Y-51000000D01*
%TO.N,Net-(D2-A)*%
X53000000Y-60000000D02*
X55460000Y-60000000D01*
X47670000Y-54670000D02*
X53000000Y-60000000D01*
%TO.N,Net-(D3-K)*%
X66856188Y-65906188D02*
X68950000Y-68000000D01*
X60126623Y-65906188D02*
X66856188Y-65906188D01*
%TO.N,Net-(D3-A)*%
X47580000Y-66330000D02*
X54622811Y-66330000D01*
X54622811Y-66330000D02*
X55046623Y-65906188D01*
%TO.N,Net-(D4-K)*%
X91800000Y-68000000D02*
X88951287Y-70848713D01*
X88951287Y-70848713D02*
X60155502Y-70848713D01*
%TO.N,Net-(D4-A)*%
X47580000Y-78130000D02*
X54861287Y-70848713D01*
X54861287Y-70848713D02*
X55075502Y-70848713D01*
%TO.N,Net-(D5-K)*%
X59540000Y-92000000D02*
X62540000Y-89000000D01*
X62540000Y-89000000D02*
X66950000Y-89000000D01*
%TO.N,Net-(D5-A)*%
X57050000Y-85130000D02*
X57050000Y-89410000D01*
X57050000Y-89410000D02*
X54460000Y-92000000D01*
%TO.N,Net-(D6-K)*%
X91800000Y-89000000D02*
X88000000Y-92800000D01*
X88000000Y-93000000D02*
X64540000Y-93000000D01*
X64540000Y-93000000D02*
X59540000Y-98000000D01*
X88000000Y-92800000D02*
X88000000Y-93000000D01*
%TO.N,Net-(D6-A)*%
X51590000Y-95130000D02*
X54460000Y-98000000D01*
X49050000Y-95130000D02*
X51590000Y-95130000D01*
%TO.N,Net-(D7-K)*%
X61540000Y-106000000D02*
X59540000Y-104000000D01*
X88800000Y-106000000D02*
X61540000Y-106000000D01*
X91800000Y-109000000D02*
X88800000Y-106000000D01*
%TO.N,Net-(D7-A)*%
X48670000Y-107670000D02*
X52340000Y-104000000D01*
X52340000Y-104000000D02*
X54460000Y-104000000D01*
%TO.N,Net-(D8-K)*%
X61540000Y-109000000D02*
X60540000Y-110000000D01*
X68800000Y-109000000D02*
X61540000Y-109000000D01*
%TO.N,Net-(D8-A)*%
X55460000Y-111540000D02*
X48670000Y-118330000D01*
X48670000Y-118330000D02*
X48670000Y-120670000D01*
X55460000Y-110000000D02*
X55460000Y-111540000D01*
%TO.N,Net-(Q1-B)*%
X37250000Y-43900000D02*
X30450000Y-43900000D01*
X37750000Y-43400000D02*
X37250000Y-43900000D01*
X48470000Y-41800000D02*
X39350000Y-41800000D01*
X39350000Y-41800000D02*
X37750000Y-43400000D01*
%TO.N,Net-(Q2-B)*%
X37750000Y-55400000D02*
X37250000Y-55900000D01*
X37750000Y-55400000D02*
X37750000Y-54520000D01*
X37750000Y-54520000D02*
X41470000Y-50800000D01*
X37250000Y-55900000D02*
X30450000Y-55900000D01*
%TO.N,Net-(Q3-B)*%
X37750000Y-66090000D02*
X37750000Y-67400000D01*
X41380000Y-62460000D02*
X37750000Y-66090000D01*
X37750000Y-67400000D02*
X30950000Y-67400000D01*
X30950000Y-67400000D02*
X30450000Y-67900000D01*
%TO.N,Net-(Q4-B)*%
X41380000Y-75770000D02*
X41380000Y-74260000D01*
X37250000Y-79900000D02*
X37750000Y-79400000D01*
X37750000Y-79400000D02*
X41380000Y-75770000D01*
X30450000Y-79900000D02*
X37250000Y-79900000D01*
%TO.N,Net-(Q5-B)*%
X37250000Y-91900000D02*
X30450000Y-91900000D01*
X37750000Y-91400000D02*
X37250000Y-91900000D01*
%TO.N,Net-(Q6-B)*%
X37750000Y-103400000D02*
X37250000Y-103900000D01*
X42850000Y-91260000D02*
X37750000Y-96360000D01*
X37250000Y-103900000D02*
X30450000Y-103900000D01*
X37750000Y-96360000D02*
X37750000Y-103400000D01*
%TO.N,Net-(Q7-B)*%
X30450000Y-115900000D02*
X37250000Y-115900000D01*
X42470000Y-110680000D02*
X37750000Y-115400000D01*
X42470000Y-103800000D02*
X42470000Y-110680000D01*
X37250000Y-115900000D02*
X37750000Y-115400000D01*
%TO.N,Net-(Q8-B)*%
X42470000Y-116800000D02*
X42470000Y-122680000D01*
X37250000Y-127900000D02*
X37750000Y-127400000D01*
X30450000Y-127900000D02*
X37250000Y-127900000D01*
X42470000Y-122680000D02*
X37750000Y-127400000D01*
D20*
%TO.N,VAC*%
X122000000Y-68000000D02*
X122000000Y-63000000D01*
D19*
X118745000Y-110745000D02*
X115000000Y-110745000D01*
D21*
X107745000Y-114745000D02*
X107000000Y-114745000D01*
X107000000Y-114745000D02*
X97162500Y-114745000D01*
D20*
X122000000Y-125255000D02*
X119255000Y-128000000D01*
X122000000Y-43000000D02*
X122000000Y-38380000D01*
X115020000Y-71980000D02*
X115000000Y-72000000D01*
X122000000Y-81000000D02*
X122000000Y-76000000D01*
X119000000Y-72000000D02*
X122000000Y-69000000D01*
X119255000Y-110745000D02*
X122000000Y-108000000D01*
X122000000Y-49000000D02*
X119000000Y-46000000D01*
X122000000Y-121000000D02*
X122000000Y-125255000D01*
X122000000Y-75000000D02*
X119000000Y-72000000D01*
X118745000Y-110745000D02*
X118600000Y-110745000D01*
X122000000Y-108000000D02*
X122000000Y-101000000D01*
D21*
X97162500Y-114745000D02*
X93157500Y-118750000D01*
D20*
X122000000Y-101000000D02*
X122000000Y-96000000D01*
D21*
X115000000Y-121000000D02*
X122000000Y-121000000D01*
X119255000Y-125255000D02*
X119255000Y-128000000D01*
D20*
X118600000Y-71980000D02*
X115020000Y-71980000D01*
X122000000Y-114000000D02*
X122000000Y-121000000D01*
X122000000Y-56000000D02*
X122000000Y-63000000D01*
X122000000Y-68000000D02*
X122000000Y-76000000D01*
X119000000Y-59000000D02*
X122000000Y-56000000D01*
X122000000Y-114000000D02*
X118745000Y-110745000D01*
X122000000Y-63000000D02*
X122000000Y-62000000D01*
X122000000Y-49000000D02*
X122000000Y-43000000D01*
X122000000Y-101000000D02*
X119000000Y-98000000D01*
X122000000Y-82000000D02*
X122000000Y-81000000D01*
D21*
X119000000Y-46000000D02*
X115000000Y-46000000D01*
D20*
X122000000Y-76000000D02*
X122000000Y-75000000D01*
X119000000Y-85000000D02*
X122000000Y-82000000D01*
D21*
X115000000Y-121000000D02*
X119255000Y-125255000D01*
D20*
X122000000Y-89000000D02*
X118000000Y-85000000D01*
D19*
X115000000Y-98000000D02*
X120000000Y-98000000D01*
D20*
X122000000Y-69000000D02*
X122000000Y-68000000D01*
X122000000Y-43000000D02*
X119000000Y-46000000D01*
D21*
X111000000Y-120000000D02*
X112000000Y-121000000D01*
D19*
X115000000Y-110745000D02*
X119255000Y-110745000D01*
D21*
X111000000Y-118000000D02*
X111000000Y-120000000D01*
D20*
X122000000Y-56000000D02*
X122000000Y-49000000D01*
X119000000Y-46000000D02*
X118600000Y-46000000D01*
X122000000Y-108000000D02*
X122000000Y-114000000D01*
D19*
X119000000Y-98000000D02*
X115000000Y-98000000D01*
D21*
X112000000Y-121000000D02*
X115000000Y-121000000D01*
X119000000Y-59000000D02*
X115000000Y-59000000D01*
D19*
X115000000Y-85000000D02*
X119000000Y-85000000D01*
D20*
X122000000Y-62000000D02*
X119000000Y-59000000D01*
D21*
X111000000Y-118000000D02*
X107745000Y-114745000D01*
D20*
X122000000Y-96000000D02*
X122000000Y-89000000D01*
X122000000Y-38380000D02*
X119020000Y-35400000D01*
X118980000Y-71980000D02*
X118600000Y-71980000D01*
X122000000Y-75000000D02*
X118980000Y-71980000D01*
X118000000Y-85000000D02*
X115000000Y-85000000D01*
X120000000Y-98000000D02*
X122000000Y-96000000D01*
X122000000Y-89000000D02*
X122000000Y-81000000D01*
D19*
%TO.N,+3.3V*%
X49460000Y-46540000D02*
X54620000Y-41380000D01*
X48620000Y-99540000D02*
X45080000Y-96000000D01*
X48620000Y-112540000D02*
X45000000Y-108920000D01*
X57000000Y-77000000D02*
X57000000Y-79000000D01*
X50750000Y-126750000D02*
X45000000Y-121000000D01*
X45000000Y-108920000D02*
X45000000Y-103000000D01*
X48460000Y-99540000D02*
X48620000Y-99540000D01*
X45000000Y-121000000D02*
X45000000Y-116160000D01*
X44000000Y-73530000D02*
X47530000Y-70000000D01*
X44000000Y-50000000D02*
X44160000Y-50000000D01*
X44000000Y-54670000D02*
X44000000Y-50000000D01*
X54657500Y-126750000D02*
X50750000Y-126750000D01*
X45080000Y-96000000D02*
X45000000Y-96000000D01*
X47530000Y-70000000D02*
X44000000Y-66470000D01*
X49000000Y-87000000D02*
X44000000Y-82000000D01*
X45000000Y-103000000D02*
X48460000Y-99540000D01*
X44000000Y-66470000D02*
X44000000Y-61730000D01*
X45000000Y-96000000D02*
X45000000Y-91000000D01*
X45000000Y-91000000D02*
X49000000Y-87000000D01*
X45000000Y-116160000D02*
X48620000Y-112540000D01*
X54620000Y-41380000D02*
X54620000Y-37540000D01*
X44000000Y-61730000D02*
X47530000Y-58200000D01*
X57000000Y-79000000D02*
X49000000Y-87000000D01*
X47530000Y-58200000D02*
X44000000Y-54670000D01*
X47620000Y-46540000D02*
X49460000Y-46540000D01*
X44000000Y-82000000D02*
X44000000Y-73530000D01*
X44160000Y-50000000D02*
X47620000Y-46540000D01*
D20*
%TO.N,Net-(J8-Pin_1)*%
X114510000Y-78510000D02*
X104000000Y-68000000D01*
D19*
X115000000Y-78510000D02*
X114510000Y-78510000D01*
D21*
%TO.N,Net-(J3-Pin_1)*%
X103910000Y-44000000D02*
X78000000Y-44000000D01*
X78000000Y-44000000D02*
X75000000Y-47000000D01*
X112510000Y-35400000D02*
X103910000Y-44000000D01*
D20*
%TO.N,Net-(J4-Pin_1)*%
X115000000Y-52510000D02*
X109490000Y-47000000D01*
X109490000Y-47000000D02*
X96150000Y-47000000D01*
%TO.N,Net-(J7-Pin_1)*%
X115000000Y-65510000D02*
X83640000Y-65510000D01*
X83640000Y-65510000D02*
X81150000Y-68000000D01*
D21*
%TO.N,Net-(J11-Pin_1)*%
X82150000Y-86000000D02*
X79150000Y-89000000D01*
X113490000Y-91490000D02*
X108000000Y-86000000D01*
X108000000Y-86000000D02*
X82150000Y-86000000D01*
D19*
X118600000Y-91490000D02*
X113490000Y-91490000D01*
D20*
%TO.N,Net-(J12-Pin_1)*%
X115000000Y-104510000D02*
X104000000Y-93510000D01*
X104000000Y-93510000D02*
X104000000Y-89000000D01*
D21*
%TO.N,Net-(J15-Pin_1)*%
X115255000Y-117255000D02*
X107000000Y-109000000D01*
X107000000Y-109000000D02*
X104000000Y-109000000D01*
D19*
X118600000Y-117255000D02*
X115255000Y-117255000D01*
D21*
%TO.N,Net-(J16-Pin_1)*%
X112745000Y-128255000D02*
X110000000Y-131000000D01*
X110000000Y-131000000D02*
X100000000Y-131000000D01*
X81000000Y-112000000D02*
X81000000Y-109000000D01*
D19*
X112745000Y-128000000D02*
X112745000Y-128255000D01*
D21*
X100000000Y-131000000D02*
X81000000Y-112000000D01*
D19*
%TO.N,unconnected-(J1-PadT)*%
X34550000Y-34100000D02*
X34550000Y-35600000D01*
X34550000Y-35600000D02*
X33350000Y-36800000D01*
%TO.N,unconnected-(J2-PadT)*%
X34550000Y-46100000D02*
X34550000Y-47600000D01*
X34550000Y-47600000D02*
X33350000Y-48800000D01*
%TO.N,unconnected-(J5-PadT)*%
X34550000Y-59600000D02*
X33350000Y-60800000D01*
X34550000Y-58100000D02*
X34550000Y-59600000D01*
%TO.N,unconnected-(J9-PadT)*%
X34550000Y-82100000D02*
X34550000Y-83600000D01*
X34550000Y-83600000D02*
X33350000Y-84800000D01*
%TO.N,unconnected-(J10-PadT)*%
X34550000Y-94100000D02*
X34550000Y-95600000D01*
X34550000Y-95600000D02*
X33350000Y-96800000D01*
%TO.N,unconnected-(J13-PadT)*%
X34550000Y-106100000D02*
X34550000Y-107600000D01*
X34550000Y-107600000D02*
X33350000Y-108800000D01*
%TO.N,unconnected-(J14-PadT)*%
X33350000Y-119300000D02*
X33350000Y-120800000D01*
X34550000Y-118100000D02*
X33350000Y-119300000D01*
%TO.N,unconnected-(J6-PadT)*%
X34550000Y-70100000D02*
X34550000Y-71600000D01*
X34550000Y-71600000D02*
X33350000Y-72800000D01*
%TD*%
M02*
