%TF.GenerationSoftware,KiCad,Pcbnew,7.0.2-6a45011f42~172~ubuntu22.04.1*%
%TF.CreationDate,2023-05-18T11:35:50+02:00*%
%TF.ProjectId,midi_relais,6d696469-5f72-4656-9c61-69732e6b6963,rev?*%
%TF.SameCoordinates,Original*%
%TF.FileFunction,Legend,Bot*%
%TF.FilePolarity,Positive*%
%FSLAX46Y46*%
G04 Gerber Fmt 4.6, Leading zero omitted, Abs format (unit mm)*
G04 Created by KiCad (PCBNEW 7.0.2-6a45011f42~172~ubuntu22.04.1) date 2023-05-18 11:35:50*
%MOMM*%
%LPD*%
G01*
G04 APERTURE LIST*
%ADD10C,0.100000*%
G04 APERTURE END LIST*
D10*
%TO.C,J15*%
X119037380Y-114574523D02*
X118323095Y-114574523D01*
X118323095Y-114574523D02*
X118180238Y-114622142D01*
X118180238Y-114622142D02*
X118085000Y-114717380D01*
X118085000Y-114717380D02*
X118037380Y-114860237D01*
X118037380Y-114860237D02*
X118037380Y-114955475D01*
X118037380Y-113574523D02*
X118037380Y-114145951D01*
X118037380Y-113860237D02*
X119037380Y-113860237D01*
X119037380Y-113860237D02*
X118894523Y-113955475D01*
X118894523Y-113955475D02*
X118799285Y-114050713D01*
X118799285Y-114050713D02*
X118751666Y-114145951D01*
X119037380Y-112669761D02*
X119037380Y-113145951D01*
X119037380Y-113145951D02*
X118561190Y-113193570D01*
X118561190Y-113193570D02*
X118608809Y-113145951D01*
X118608809Y-113145951D02*
X118656428Y-113050713D01*
X118656428Y-113050713D02*
X118656428Y-112812618D01*
X118656428Y-112812618D02*
X118608809Y-112717380D01*
X118608809Y-112717380D02*
X118561190Y-112669761D01*
X118561190Y-112669761D02*
X118465952Y-112622142D01*
X118465952Y-112622142D02*
X118227857Y-112622142D01*
X118227857Y-112622142D02*
X118132619Y-112669761D01*
X118132619Y-112669761D02*
X118085000Y-112717380D01*
X118085000Y-112717380D02*
X118037380Y-112812618D01*
X118037380Y-112812618D02*
X118037380Y-113050713D01*
X118037380Y-113050713D02*
X118085000Y-113145951D01*
X118085000Y-113145951D02*
X118132619Y-113193570D01*
%TO.C,J4*%
X119021457Y-49330467D02*
X118307172Y-49330467D01*
X118307172Y-49330467D02*
X118164315Y-49378086D01*
X118164315Y-49378086D02*
X118069077Y-49473324D01*
X118069077Y-49473324D02*
X118021457Y-49616181D01*
X118021457Y-49616181D02*
X118021457Y-49711419D01*
X118688124Y-48425705D02*
X118021457Y-48425705D01*
X119069077Y-48663800D02*
X118354791Y-48901895D01*
X118354791Y-48901895D02*
X118354791Y-48282848D01*
%TO.C,J8*%
X119020105Y-75240243D02*
X118305820Y-75240243D01*
X118305820Y-75240243D02*
X118162963Y-75287862D01*
X118162963Y-75287862D02*
X118067725Y-75383100D01*
X118067725Y-75383100D02*
X118020105Y-75525957D01*
X118020105Y-75525957D02*
X118020105Y-75621195D01*
X118591534Y-74621195D02*
X118639153Y-74716433D01*
X118639153Y-74716433D02*
X118686772Y-74764052D01*
X118686772Y-74764052D02*
X118782010Y-74811671D01*
X118782010Y-74811671D02*
X118829629Y-74811671D01*
X118829629Y-74811671D02*
X118924867Y-74764052D01*
X118924867Y-74764052D02*
X118972486Y-74716433D01*
X118972486Y-74716433D02*
X119020105Y-74621195D01*
X119020105Y-74621195D02*
X119020105Y-74430719D01*
X119020105Y-74430719D02*
X118972486Y-74335481D01*
X118972486Y-74335481D02*
X118924867Y-74287862D01*
X118924867Y-74287862D02*
X118829629Y-74240243D01*
X118829629Y-74240243D02*
X118782010Y-74240243D01*
X118782010Y-74240243D02*
X118686772Y-74287862D01*
X118686772Y-74287862D02*
X118639153Y-74335481D01*
X118639153Y-74335481D02*
X118591534Y-74430719D01*
X118591534Y-74430719D02*
X118591534Y-74621195D01*
X118591534Y-74621195D02*
X118543915Y-74716433D01*
X118543915Y-74716433D02*
X118496296Y-74764052D01*
X118496296Y-74764052D02*
X118401058Y-74811671D01*
X118401058Y-74811671D02*
X118210582Y-74811671D01*
X118210582Y-74811671D02*
X118115344Y-74764052D01*
X118115344Y-74764052D02*
X118067725Y-74716433D01*
X118067725Y-74716433D02*
X118020105Y-74621195D01*
X118020105Y-74621195D02*
X118020105Y-74430719D01*
X118020105Y-74430719D02*
X118067725Y-74335481D01*
X118067725Y-74335481D02*
X118115344Y-74287862D01*
X118115344Y-74287862D02*
X118210582Y-74240243D01*
X118210582Y-74240243D02*
X118401058Y-74240243D01*
X118401058Y-74240243D02*
X118496296Y-74287862D01*
X118496296Y-74287862D02*
X118543915Y-74335481D01*
X118543915Y-74335481D02*
X118591534Y-74430719D01*
%TO.C,J12*%
X119037380Y-101809523D02*
X118323095Y-101809523D01*
X118323095Y-101809523D02*
X118180238Y-101857142D01*
X118180238Y-101857142D02*
X118085000Y-101952380D01*
X118085000Y-101952380D02*
X118037380Y-102095237D01*
X118037380Y-102095237D02*
X118037380Y-102190475D01*
X118037380Y-100809523D02*
X118037380Y-101380951D01*
X118037380Y-101095237D02*
X119037380Y-101095237D01*
X119037380Y-101095237D02*
X118894523Y-101190475D01*
X118894523Y-101190475D02*
X118799285Y-101285713D01*
X118799285Y-101285713D02*
X118751666Y-101380951D01*
X118942142Y-100428570D02*
X118989761Y-100380951D01*
X118989761Y-100380951D02*
X119037380Y-100285713D01*
X119037380Y-100285713D02*
X119037380Y-100047618D01*
X119037380Y-100047618D02*
X118989761Y-99952380D01*
X118989761Y-99952380D02*
X118942142Y-99904761D01*
X118942142Y-99904761D02*
X118846904Y-99857142D01*
X118846904Y-99857142D02*
X118751666Y-99857142D01*
X118751666Y-99857142D02*
X118608809Y-99904761D01*
X118608809Y-99904761D02*
X118037380Y-100476189D01*
X118037380Y-100476189D02*
X118037380Y-99857142D01*
%TO.C,J11*%
X119037380Y-88809523D02*
X118323095Y-88809523D01*
X118323095Y-88809523D02*
X118180238Y-88857142D01*
X118180238Y-88857142D02*
X118085000Y-88952380D01*
X118085000Y-88952380D02*
X118037380Y-89095237D01*
X118037380Y-89095237D02*
X118037380Y-89190475D01*
X118037380Y-87809523D02*
X118037380Y-88380951D01*
X118037380Y-88095237D02*
X119037380Y-88095237D01*
X119037380Y-88095237D02*
X118894523Y-88190475D01*
X118894523Y-88190475D02*
X118799285Y-88285713D01*
X118799285Y-88285713D02*
X118751666Y-88380951D01*
X118037380Y-86857142D02*
X118037380Y-87428570D01*
X118037380Y-87142856D02*
X119037380Y-87142856D01*
X119037380Y-87142856D02*
X118894523Y-87238094D01*
X118894523Y-87238094D02*
X118799285Y-87333332D01*
X118799285Y-87333332D02*
X118751666Y-87428570D01*
%TO.C,J7*%
X119037380Y-62333333D02*
X118323095Y-62333333D01*
X118323095Y-62333333D02*
X118180238Y-62380952D01*
X118180238Y-62380952D02*
X118085000Y-62476190D01*
X118085000Y-62476190D02*
X118037380Y-62619047D01*
X118037380Y-62619047D02*
X118037380Y-62714285D01*
X119037380Y-61952380D02*
X119037380Y-61285714D01*
X119037380Y-61285714D02*
X118037380Y-61714285D01*
%TO.C,J16*%
X115425476Y-128437380D02*
X115425476Y-127723095D01*
X115425476Y-127723095D02*
X115377857Y-127580238D01*
X115377857Y-127580238D02*
X115282619Y-127485000D01*
X115282619Y-127485000D02*
X115139762Y-127437380D01*
X115139762Y-127437380D02*
X115044524Y-127437380D01*
X116425476Y-127437380D02*
X115854048Y-127437380D01*
X116139762Y-127437380D02*
X116139762Y-128437380D01*
X116139762Y-128437380D02*
X116044524Y-128294523D01*
X116044524Y-128294523D02*
X115949286Y-128199285D01*
X115949286Y-128199285D02*
X115854048Y-128151666D01*
X117282619Y-128437380D02*
X117092143Y-128437380D01*
X117092143Y-128437380D02*
X116996905Y-128389761D01*
X116996905Y-128389761D02*
X116949286Y-128342142D01*
X116949286Y-128342142D02*
X116854048Y-128199285D01*
X116854048Y-128199285D02*
X116806429Y-128008809D01*
X116806429Y-128008809D02*
X116806429Y-127627857D01*
X116806429Y-127627857D02*
X116854048Y-127532619D01*
X116854048Y-127532619D02*
X116901667Y-127485000D01*
X116901667Y-127485000D02*
X116996905Y-127437380D01*
X116996905Y-127437380D02*
X117187381Y-127437380D01*
X117187381Y-127437380D02*
X117282619Y-127485000D01*
X117282619Y-127485000D02*
X117330238Y-127532619D01*
X117330238Y-127532619D02*
X117377857Y-127627857D01*
X117377857Y-127627857D02*
X117377857Y-127865952D01*
X117377857Y-127865952D02*
X117330238Y-127961190D01*
X117330238Y-127961190D02*
X117282619Y-128008809D01*
X117282619Y-128008809D02*
X117187381Y-128056428D01*
X117187381Y-128056428D02*
X116996905Y-128056428D01*
X116996905Y-128056428D02*
X116901667Y-128008809D01*
X116901667Y-128008809D02*
X116854048Y-127961190D01*
X116854048Y-127961190D02*
X116806429Y-127865952D01*
%TD*%
M02*
