M48
; DRILL file {KiCad 7.0.2-6a45011f42~172~ubuntu22.04.1} date Do 18 Mai 2023 11:30:40 CEST
; FORMAT={-:-/ absolute / inch / decimal}
; #@! TF.CreationDate,2023-05-18T11:30:40+02:00
; #@! TF.GenerationSoftware,Kicad,Pcbnew,7.0.2-6a45011f42~172~ubuntu22.04.1
; #@! TF.FileFunction,Plated,1,2,PTH
FMAT,2
INCH
; #@! TA.AperFunction,Plated,PTH,ComponentDrill
T1C0.0315
; #@! TA.AperFunction,Plated,PTH,ComponentDrill
T2C0.0394
; #@! TA.AperFunction,Plated,PTH,ComponentDrill
T3C0.0512
; #@! TA.AperFunction,Plated,PTH,ComponentDrill
T4C0.0591
; #@! TA.AperFunction,Plated,PTH,ComponentDrill
T5C0.0984
%
G90
G05
T2
X1.6291Y-2.4591
X1.6291Y-2.9236
X1.6327Y-2.0
X1.672Y-4.0866
X1.672Y-4.5984
X1.687Y-3.5929
X1.8713Y-2.2913
X1.8713Y-2.7559
X1.8732Y-2.6114
X1.8732Y-3.076
X1.8748Y-1.8323
X1.8768Y-2.1524
X1.9083Y-1.6457
X1.9142Y-3.9189
X1.9142Y-4.4307
X1.9161Y-4.239
X1.9161Y-4.7508
X1.9291Y-3.4252
X1.9311Y-3.7453
X2.002Y-3.1992
X2.1441Y-3.622
X2.1441Y-3.8583
X2.1441Y-4.0945
X2.1504Y-1.478
X2.1524Y-1.798
X2.1672Y-2.5947
X2.1683Y-2.7893
X2.1835Y-2.1654
X2.1835Y-2.3622
X2.1835Y-4.3307
X2.2441Y-3.0315
X2.2461Y-3.3516
X2.3441Y-3.622
X2.3441Y-3.8583
X2.3441Y-4.0945
X2.3672Y-2.5947
X2.3683Y-2.7893
X2.3835Y-2.1654
X2.3835Y-2.3622
X2.3835Y-4.3307
T3
X2.3937Y-1.6142
X2.4724Y-1.378
X2.4724Y-1.8504
X2.5571Y-3.2677
X2.6299Y-4.0551
X2.6358Y-2.4409
X2.6358Y-3.0315
X2.6358Y-3.5039
X2.7087Y-3.8189
X2.7087Y-4.2913
X2.7146Y-2.2047
X2.7146Y-2.6772
X2.9528Y-1.378
X2.9528Y-1.8504
X3.1161Y-3.0315
X3.1161Y-3.5039
X3.189Y-3.8189
X3.189Y-4.2913
X3.1949Y-2.2047
X3.1949Y-2.6772
X3.2264Y-1.6142
X3.3051Y-1.378
X3.3051Y-1.8504
X3.5354Y-2.4409
X3.5354Y-3.2677
X3.5354Y-4.0551
X3.6142Y-2.2047
X3.6142Y-2.6772
X3.6142Y-3.0315
X3.6142Y-3.5039
X3.6142Y-3.8189
X3.6142Y-4.2913
X3.7854Y-1.378
X3.7854Y-1.8504
X4.0945Y-2.2047
X4.0945Y-2.6772
X4.0945Y-3.0315
X4.0945Y-3.5039
X4.0945Y-3.8189
X4.0945Y-4.2913
T4
X2.1519Y-4.6752
X2.1519Y-4.9902
X3.6676Y-4.6752
X3.6676Y-5.0984
T5
X4.2126Y-4.5175
X4.2126Y-4.7738
X4.4295Y-1.3937
X4.4388Y-5.0394
X4.6686Y-2.8302
X4.6686Y-3.0865
X4.6687Y-1.8101
X4.6687Y-2.0664
X4.6693Y-2.322
X4.6693Y-2.5783
X4.6693Y-3.3457
X4.6693Y-3.602
X4.6693Y-3.8575
X4.6693Y-4.1138
X4.6693Y-4.36
X4.6693Y-4.6163
X4.6858Y-1.3937
X4.6951Y-5.0394
T1
G00X1.0453Y-1.5335
M15
G01X1.0453Y-1.561
M16
G05
G00X1.0453Y-2.0059
M15
G01X1.0453Y-2.0335
M16
G05
G00X1.0453Y-2.4783
M15
G01X1.0453Y-2.5059
M16
G05
G00X1.0453Y-2.9508
M15
G01X1.0453Y-2.9783
M16
G05
G00X1.0453Y-3.4232
M15
G01X1.0453Y-3.4508
M16
G05
G00X1.0453Y-3.8957
M15
G01X1.0453Y-3.9232
M16
G05
G00X1.0453Y-4.3681
M15
G01X1.0453Y-4.3957
M16
G05
G00X1.0453Y-4.8406
M15
G01X1.0453Y-4.8681
M16
G05
G00X1.185Y-1.7283
M15
G01X1.2126Y-1.7283
M16
G05
G00X1.185Y-2.2008
M15
G01X1.2126Y-2.2008
M16
G05
G00X1.185Y-2.6732
M15
G01X1.2126Y-2.6732
M16
G05
G00X1.185Y-3.1457
M15
G01X1.2126Y-3.1457
M16
G05
G00X1.185Y-3.6181
M15
G01X1.2126Y-3.6181
M16
G05
G00X1.185Y-4.0906
M15
G01X1.2126Y-4.0906
M16
G05
G00X1.185Y-4.563
M15
G01X1.2126Y-4.563
M16
G05
G00X1.185Y-5.0354
M15
G01X1.2126Y-5.0354
M16
G05
G00X1.2992Y-1.4488
M15
G01X1.3268Y-1.4488
M16
G05
G00X1.2992Y-1.9213
M15
G01X1.3268Y-1.9213
M16
G05
G00X1.2992Y-2.3937
M15
G01X1.3268Y-2.3937
M16
G05
G00X1.2992Y-2.8661
M15
G01X1.3268Y-2.8661
M16
G05
G00X1.2992Y-3.3386
M15
G01X1.3268Y-3.3386
M16
G05
G00X1.2992Y-3.811
M15
G01X1.3268Y-3.811
M16
G05
G00X1.2992Y-4.2835
M15
G01X1.3268Y-4.2835
M16
G05
G00X1.2992Y-4.7559
M15
G01X1.3268Y-4.7559
M16
G05
G00X1.3465Y-1.3425
M15
G01X1.374Y-1.3425
M16
G05
G00X1.3465Y-1.815
M15
G01X1.374Y-1.815
M16
G05
G00X1.3465Y-2.2874
M15
G01X1.374Y-2.2874
M16
G05
G00X1.3465Y-2.7598
M15
G01X1.374Y-2.7598
M16
G05
G00X1.3465Y-3.2323
M15
G01X1.374Y-3.2323
M16
G05
G00X1.3465Y-3.7047
M15
G01X1.374Y-3.7047
M16
G05
G00X1.3465Y-4.1772
M15
G01X1.374Y-4.1772
M16
G05
G00X1.3465Y-4.6496
M15
G01X1.374Y-4.6496
M16
G05
G00X1.4862Y-1.6949
M15
G01X1.4862Y-1.7224
M16
G05
G00X1.4862Y-2.1673
M15
G01X1.4862Y-2.1949
M16
G05
G00X1.4862Y-2.6398
M15
G01X1.4862Y-2.6673
M16
G05
G00X1.4862Y-3.1122
M15
G01X1.4862Y-3.1398
M16
G05
G00X1.4862Y-3.5846
M15
G01X1.4862Y-3.6122
M16
G05
G00X1.4862Y-4.0571
M15
G01X1.4862Y-4.0846
M16
G05
G00X1.4862Y-4.5295
M15
G01X1.4862Y-4.5571
M16
G05
G00X1.4862Y-5.002
M15
G01X1.4862Y-5.0295
M16
G05
T0
M30
